<?xml version="1.0" encoding="UTF-8"?>
<!DOCTYPE svg PUBLIC "-//W3C//DTD SVG 1.1//EN" "http://www.w3.org/Graphics/SVG/1.1/DTD/svg11.dtd">
<svg enable-background="new 0 0 128 128" version="1.1" viewBox="0 0 128 128" xml:space="preserve" xmlns="http://www.w3.org/2000/svg" xmlns:xlink="http://www.w3.org/1999/xlink"><g id="Layer_1"><rect fill="#F4F5F5" height="1520" opacity="0" width="727.938" x="-219.984" y="-541"/></g><g id="Layer_2"><g><circle cx="64" cy="64" fill="#EBF0F1" r="64"/><g><defs><circle cx="64" cy="64" id="SVGID_23_" r="64"/></defs><clipPath id="SVGID_2_"><use overflow="visible" xlink:href="#SVGID_23_"/></clipPath><polygon clip-path="url(#SVGID_2_)" fill="#D9E1E2" points="29.315,103.933 53.5,127.998 128,127.998 128,66.557 93.499,31.955      91.417,31.083 81.866,21.489 74.667,23.25 67.718,16.363 45.61,59.233    "/></g><g><path d="M58.799,19.683L30.021,82.768c-0.913,2.002-0.023,4.386,1.979,5.299l27.592,12.587     c2.002,0.913,4.386,0.023,5.299-1.979L93.67,35.591c0.913-2.002,0.023-4.386-1.979-5.299L64.099,17.704     C62.097,16.791,59.713,17.682,58.799,19.683z" fill="#016938"/><path d="M44.408,22.075l-3.698,69.24c-0.117,2.197,1.584,4.09,3.781,4.208l30.284,1.617     c2.197,0.117,4.09-1.584,4.208-3.781l3.698-69.24c0.117-2.197-1.584-4.09-3.781-4.208l-30.284-1.617     C46.419,18.177,44.526,19.879,44.408,22.075z" fill="#027B38"/><path d="M32.715,31.142L56.865,96.14c0.766,2.062,3.08,3.123,5.143,2.356l28.429-10.562     c2.062-0.766,3.123-3.08,2.356-5.143L68.643,17.794c-0.766-2.062-3.08-3.123-5.143-2.356L35.072,26     C33.01,26.766,31.949,29.08,32.715,31.142z" fill="#89BC49"/><path d="M32.715,31.142L56.865,96.14c0.766,2.062,3.08,3.123,5.143,2.356l28.429-10.562     c2.062-0.766,3.123-3.08,2.356-5.143L68.643,17.794c-0.766-2.062-3.08-3.123-5.143-2.356L35.072,26     C33.01,26.766,31.949,29.08,32.715,31.142z" fill="#92C142"/><g><defs><path d="M32.715,31.142L56.865,96.14c0.766,2.062,3.08,3.123,5.143,2.356l28.429-10.562       c2.062-0.766,3.123-3.08,2.356-5.143L68.643,17.794c-0.766-2.062-3.08-3.123-5.143-2.356L35.072,26       C33.01,26.766,31.949,29.08,32.715,31.142z" id="SVGID_25_"/></defs><clipPath id="SVGID_4_"><use overflow="visible" xlink:href="#SVGID_25_"/></clipPath><g clip-path="url(#SVGID_4_)"><path d="M41.262,22.823c0.114,0.248,0.228,0.496,0.325,0.755l0,0.001l15.399-5.719       c0-0.001-0.001-0.002-0.001-0.003c-0.097-0.26-0.171-0.522-0.247-0.784l11.239-4.176l4.077,10.974       c-0.286,0.139-0.576,0.273-0.878,0.389l19.312,51.978c0.305-0.109,0.611-0.198,0.919-0.279l4.649,12.514l-11.008,4.09       c-0.447-0.68-0.833-1.414-1.129-2.209l0-0.001l-15.399,5.719c0,0.001,0.001,0.002,0.001,0.003       c0.296,0.795,0.483,1.603,0.588,2.41l-10.65,3.957l-4.66-12.542c0.213-0.095,0.422-0.194,0.643-0.276L35.136,37.658       c-0.221,0.082-0.445,0.143-0.667,0.21l-4.088-11.002L41.262,22.823z M38.151,35.948l19.693,53.004       c3.463-0.131,6.804,1.399,8.966,4.107l16.437-6.104c-0.132-3.507,1.436-6.893,4.209-9.052l-19.662-52.92       c-3.509,0.175-6.907-1.365-9.097-4.107L42.261,26.98C42.392,30.444,40.861,33.786,38.151,35.948z" fill="#3C9C36"/></g></g><ellipse cx="62.754" cy="56.967" fill="#3C9C36" rx="9.24" ry="11.806" transform="matrix(-0.3483 -0.9374 0.9374 -0.3483 31.2093 135.6323)"/><path d="M48.913,34.371l2.498,6.724c0.882,2.373,3.52,3.582,5.893,2.7l0.452-0.168     c2.373-0.882,3.582-3.52,2.7-5.893l-2.498-6.724c-0.882-2.373-3.52-3.582-5.893-2.7l-0.452,0.168     C49.241,29.359,48.032,31.998,48.913,34.371z" fill="#3C9C36"/><path d="M64.502,76.33l2.498,6.724c0.882,2.373,3.52,3.582,5.893,2.7l0.452-0.168     c2.373-0.882,3.582-3.52,2.7-5.893l-2.498-6.724c-0.882-2.373-3.52-3.582-5.893-2.7l-0.452,0.168     C64.83,71.318,63.621,73.957,64.502,76.33z" fill="#3C9C36"/></g><path d="M95.737,105.25H32.158c-2.209,0-4-1.791-4-4V54.513c0-2.209,1.791-4,4-4h63.579c2.209,0,4,1.791,4,4    v46.737C99.737,103.459,97.946,105.25,95.737,105.25z" fill="#F49C0B"/><path d="M95.526,50.513h-3.158c2.325,0,4.211,1.885,4.211,4.211v30.476l-22.297-1.972    l20.914,20.914c-0.748,0.683-1.735,1.11-2.827,1.11h3.158c2.325,0,4.211-1.885,4.211-4.211V54.724    C99.737,52.398,97.852,50.513,95.526,50.513z" fill="#E48316" opacity="0.67"/><path d="M87.292,101.131h-2.113c-0.291,0-0.526-0.235-0.526-0.526c0-0.291,0.235-0.526,0.526-0.526h2.113    c0.291,0,0.526,0.235,0.526,0.526C87.819,100.896,87.583,101.131,87.292,101.131z M79.894,101.131h-2.113    c-0.291,0-0.526-0.235-0.526-0.526c0-0.291,0.235-0.526,0.526-0.526h2.113c0.291,0,0.526,0.235,0.526,0.526    C80.42,100.896,80.185,101.131,79.894,101.131z M72.497,101.131h-2.113c-0.291,0-0.526-0.235-0.526-0.526    c0-0.291,0.235-0.526,0.526-0.526h2.113c0.291,0,0.526,0.235,0.526,0.526C73.023,100.896,72.788,101.131,72.497,101.131z     M65.1,101.131h-2.113c-0.291,0-0.526-0.235-0.526-0.526c0-0.291,0.235-0.526,0.526-0.526H65.1c0.291,0,0.526,0.235,0.526,0.526    C65.626,100.896,65.391,101.131,65.1,101.131z M57.703,101.131h-2.115c-0.291,0-0.526-0.235-0.526-0.526    c0-0.291,0.235-0.526,0.526-0.526h2.115c0.291,0,0.526,0.235,0.526,0.526C58.229,100.896,57.993,101.131,57.703,101.131z     M50.304,101.131h-2.113c-0.291,0-0.526-0.235-0.526-0.526c0-0.291,0.235-0.526,0.526-0.526h2.113    c0.291,0,0.526,0.235,0.526,0.526C50.831,100.896,50.595,101.131,50.304,101.131z M42.907,101.131h-2.113    c-0.291,0-0.526-0.235-0.526-0.526c0-0.291,0.235-0.526,0.526-0.526h2.113c0.291,0,0.526,0.235,0.526,0.526    C43.433,100.896,43.198,101.131,42.907,101.131z M35.51,101.131h-0.028c-0.871,0-1.579-0.708-1.579-1.579v-0.46    c0-0.291,0.235-0.526,0.526-0.526s0.526,0.235,0.526,0.526v0.46c0,0.29,0.236,0.526,0.526,0.526c0.291,0,0.54,0.235,0.54,0.526    C36.022,100.896,35.801,101.131,35.51,101.131z M92.574,101.119c-0.254,0-0.478-0.185-0.519-0.445    c-0.045-0.287,0.151-0.556,0.439-0.601c0.254-0.04,0.445-0.263,0.445-0.52v-0.623c0-0.291,0.235-0.526,0.526-0.526    c0.291,0,0.526,0.235,0.526,0.526v0.623c0,0.782-0.561,1.439-1.335,1.56C92.63,101.117,92.602,101.119,92.574,101.119z     M34.43,94.335c-0.291,0-0.526-0.235-0.526-0.526v-2.115c0-0.291,0.235-0.526,0.526-0.526s0.526,0.235,0.526,0.526v2.115    C34.956,94.1,34.72,94.335,34.43,94.335z M93.465,94.172c-0.291,0-0.526-0.235-0.526-0.526v-2.115    c0-0.291,0.235-0.526,0.526-0.526c0.291,0,0.526,0.235,0.526,0.526v2.115C93.992,93.936,93.756,94.172,93.465,94.172z     M34.43,86.937c-0.291,0-0.526-0.235-0.526-0.526v-2.113c0-0.291,0.235-0.526,0.526-0.526s0.526,0.235,0.526,0.526v2.113    C34.956,86.702,34.72,86.937,34.43,86.937z M34.43,79.54c-0.291,0-0.526-0.235-0.526-0.526V76.9c0-0.291,0.235-0.526,0.526-0.526    s0.526,0.235,0.526,0.526v2.113C34.956,79.304,34.72,79.54,34.43,79.54z M34.43,72.143c-0.291,0-0.526-0.235-0.526-0.526v-2.113    c0-0.291,0.235-0.526,0.526-0.526s0.526,0.235,0.526,0.526v2.113C34.956,71.907,34.72,72.143,34.43,72.143z M34.43,64.744    c-0.291,0-0.526-0.235-0.526-0.526v-2.113c0-0.291,0.235-0.526,0.526-0.526s0.526,0.235,0.526,0.526v2.113    C34.956,64.509,34.72,64.744,34.43,64.744z M93.465,64.581c-0.291,0-0.526-0.235-0.526-0.526v-2.113    c0-0.291,0.235-0.526,0.526-0.526c0.291,0,0.526,0.235,0.526,0.526v2.113C93.992,64.345,93.756,64.581,93.465,64.581z     M34.43,57.347c-0.291,0-0.526-0.235-0.526-0.526v-0.61c0-0.781,0.583-1.453,1.356-1.564c0.282-0.034,0.554,0.158,0.595,0.447    c0.041,0.288-0.159,0.554-0.447,0.595c-0.257,0.037-0.451,0.261-0.451,0.521v0.61C34.956,57.112,34.72,57.347,34.43,57.347z     M93.465,57.184c-0.291,0-0.526-0.235-0.526-0.526v-0.446c0-0.29-0.236-0.526-0.526-0.526c-0.291,0-0.534-0.235-0.534-0.526    s0.229-0.526,0.52-0.526h0.013c0.871,0,1.579,0.708,1.579,1.579v0.446C93.992,56.948,93.756,57.184,93.465,57.184z M87.115,55.685    h-2.113c-0.291,0-0.526-0.235-0.526-0.526s0.235-0.526,0.526-0.526h2.113c0.291,0,0.526,0.235,0.526,0.526    S87.405,55.685,87.115,55.685z M79.717,55.685h-2.113c-0.291,0-0.526-0.235-0.526-0.526s0.235-0.526,0.526-0.526h2.113    c0.291,0,0.526,0.235,0.526,0.526S80.008,55.685,79.717,55.685z M72.32,55.685h-2.113c-0.291,0-0.526-0.235-0.526-0.526    s0.235-0.526,0.526-0.526h2.113c0.291,0,0.526,0.235,0.526,0.526S72.611,55.685,72.32,55.685z M64.923,55.685h-2.115    c-0.291,0-0.526-0.235-0.526-0.526s0.235-0.526,0.526-0.526h2.115c0.291,0,0.526,0.235,0.526,0.526S65.214,55.685,64.923,55.685z     M57.525,55.685h-2.113c-0.291,0-0.526-0.235-0.526-0.526s0.235-0.526,0.526-0.526h2.113c0.291,0,0.526,0.235,0.526,0.526    S57.816,55.685,57.525,55.685z M50.127,55.685h-2.113c-0.291,0-0.526-0.235-0.526-0.526s0.235-0.526,0.526-0.526h2.113    c0.291,0,0.526,0.235,0.526,0.526S50.418,55.685,50.127,55.685z M42.73,55.685h-2.115c-0.291,0-0.526-0.235-0.526-0.526    s0.235-0.526,0.526-0.526h2.115c0.291,0,0.526,0.235,0.526,0.526S43.021,55.685,42.73,55.685z" fill="#FBCA76"/><path d="M31.316,101.039V54.724c0-2.325,1.885-4.211,4.211-4.211h-3.158    c-2.325,0-4.211,1.885-4.211,4.211v46.316c0,2.325,1.885,4.211,4.211,4.211h3.158C33.201,105.25,31.316,103.365,31.316,101.039z" fill="#F9C187" opacity="0.5"/><path d="M99.842,86.303H80.368c-4.418,0-8-3.582-8-8v-0.842c0-4.418,3.582-8,8-8h19.474c1.105,0,2,0.895,2,2    v12.842C101.842,85.407,100.947,86.303,99.842,86.303z" fill="#D17311"/><g><defs><path d="M99.737,69.461h-5.06v16.842h5.06c1.163,0,2.105-0.943,2.105-2.105V71.566      C101.842,70.403,100.9,69.461,99.737,69.461z" id="SVGID_27_"/></defs><clipPath id="SVGID_6_"><use overflow="visible" xlink:href="#SVGID_27_"/></clipPath><rect clip-path="url(#SVGID_6_)" fill="#CA6213" height="25.674" width="3.158" x="98.684" y="65.63"/></g><g><defs><path d="M99.842,86.303H80.368c-4.418,0-8-3.582-8-8v-0.842c0-4.418,3.582-8,8-8h19.474c1.105,0,2,0.895,2,2      v12.842C101.842,85.407,100.947,86.303,99.842,86.303z" id="SVGID_29_"/></defs><clipPath id="SVGID_8_"><use overflow="visible" xlink:href="#SVGID_29_"/></clipPath><polygon clip-path="url(#SVGID_8_)" fill="#C56415" points="77.794,80.692 83.973,86.771 94.836,86.771 83.333,75.266    "/></g><g><circle cx="80.467" cy="77.882" fill="#D8B997" r="3.888"/><path d="M78.684,77.882c0-1.511,0.471-2.866,1.217-3.831c-1.877,0.276-3.322,1.877-3.322,3.831     c0,1.953,1.446,3.555,3.322,3.831C79.155,80.748,78.684,79.393,78.684,77.882z" fill="#F1D2AE"/><path d="M82.249,77.882c0,1.511-0.471,2.866-1.217,3.831c1.877-0.276,3.322-1.877,3.322-3.831     c0-1.953-1.446-3.555-3.322-3.831C81.778,75.015,82.249,76.37,82.249,77.882z" fill="#C8A57E"/></g></g></g></svg>